<svg version="1.2" xmlns="http://www.w3.org/2000/svg" viewBox="0 0 284 284" width="284" height="284">
	<title>alex-svg</title>
	<style>
		.s0 { fill: #6273cd } 
		.s1 { fill: #c1ad1f } 
		.s2 { fill: #c48349 } 
		.s3 { fill: none;stroke: #08393d;stroke-linecap: round;stroke-linejoin: round;stroke-width: 2 } 
		.s4 { fill: #08393d } 
		.s5 { fill: #000000 } 
		.s6 { fill: #ffffff } 
		.s7 { mix-blend-mode: multiply;fill: #cecece } 
		.s8 { fill: #f2dd20 } 
	</style>
	<g id="OBJECTS">
		<g id="&lt;Group&gt;">
			<g id="&lt;Group&gt;">
				<path id="&lt;Path&gt;" class="s0" d="m283.7 141.8c0 78.1-63.3 141.5-141.5 141.5-78.2 0-141.5-63.4-141.5-141.5 0-78.2 63.3-141.6 141.5-141.6 78.2 0 141.5 63.4 141.5 141.6z"/>
			</g>
			<path id="&lt;Path&gt;" class="s1" d="m144.6 165c-2.5-0.3-36.1-3.9-36.1 23.7 0 28.6 26.6 21.3 26.6 31.6 0 7.4 5.3 18.5 8.4 24.3v3.8c0 0 0.4-0.7 1.1-1.9 0.6 1.2 1 1.9 1 1.9v-3.8c3.1-5.8 8.4-16.9 8.4-24.3 0-10.3 26.6-3 26.6-31.6 0-27.6-33.6-24-36-23.7z"/>
			<g id="&lt;Group&gt;">
				<path id="&lt;Path&gt;" class="s2" d="m195.4 104.4c0 18.2-3.4 55.1-30.3 67.4-5.7 2.6-12.3 4.1-20.2 4.1-7.5 0-13.8-1.5-19.2-4.2-23.4-11.3-29.1-43.8-30.1-66.2-0.6-13 1.3-69.4 53.2-67.7 52.8 1.7 46.6 60.4 46.6 66.6z"/>
			</g>
			<path id="&lt;Path&gt;" class="s3" d="m136.5 126.2c0 0-7.4 9.2 4.7 9.2h2.3 2.2c12.1 0 4.8-9.2 4.8-9.2"/>
			<g id="&lt;Group&gt;">
				<path id="&lt;Path&gt;" class="s2" d="m74.8 111.1c-4.4 8.7 7.7 28.2 24.7 22.8v-0.1c-2.4-9.7-3.5-19.7-3.9-28.3 0 0-16.5-3.1-20.8 5.6z"/>
			</g>
			<g id="&lt;Group&gt;">
				<path id="&lt;Path&gt;" class="s2" d="m217.5 111.1c-4.3-8.7-20.8-5.6-20.8-5.6 0 0-0.6 0.1-1.3 0.2-0.1 7.5-0.7 17.7-3.2 28q0.3 0.1 0.6 0.1v0.1c17 5.4 29.1-14.1 24.7-22.8z"/>
			</g>
			<path id="&lt;Path&gt;" class="s3" d="m80.5 117.6c0 0 7.3-5.3 12.4 1.7 0 0-9.1 1.4-5.7 7.3"/>
			<path id="&lt;Path&gt;" class="s3" d="m211.5 117.6c0 0-7.3-5.3-12.4 1.7 0 0 9.1 1.4 5.7 7.3"/>
			<path id="&lt;Path&gt;" class="s3" d="m134.1 149.4c0 0 10.6 10.3 18.6 0"/>
			<g id="&lt;Group&gt;">
				<path id="&lt;Path&gt;" class="s4" d="m133.6 92.4c-2.4-1.7-5-2.9-7.7-3.7-2.6-0.8-5.3-1.1-8-0.9-2.7 0.3-5.4 1-8.1 2-1.3 0.5-2.6 1.1-3.9 1.7-1.3 0.7-2.6 1.4-4 2v0.1c-0.3 0.1-0.6 0-0.8-0.3-0.1-0.2 0-0.5 0.1-0.6 1.1-1.2 2.2-2.2 3.3-3.3 1.3-0.9 2.5-1.9 3.9-2.6 2.8-1.6 5.9-2.6 9.2-3 3.2-0.2 6.6 0.3 9.6 1.7 2.9 1.4 5.5 3.4 7.2 6.1 0.2 0.3 0.1 0.6-0.1 0.8-0.2 0.1-0.5 0.1-0.7 0z"/>
			</g>
			<g id="&lt;Group&gt;">
				<path id="&lt;Path&gt;" class="s4" d="m152.4 91.6c1.7-2.7 4.3-4.7 7.2-6.1 3-1.4 6.3-1.9 9.6-1.7 3.3 0.4 6.4 1.4 9.2 3 1.4 0.7 2.6 1.7 3.9 2.6 1.1 1.1 2.2 2.1 3.3 3.3 0.2 0.2 0.2 0.6-0.1 0.8-0.1 0.1-0.4 0.2-0.6 0.1v-0.1c-1.4-0.6-2.7-1.3-4-2-1.3-0.6-2.6-1.2-3.9-1.7-2.7-1-5.4-1.7-8.1-2-2.7-0.2-5.4 0.1-8 0.9-2.7 0.8-5.3 2-7.7 3.7h-0.1c-0.2 0.2-0.6 0.1-0.7-0.2q-0.3-0.3 0-0.6z"/>
			</g>
			<path id="&lt;Path&gt;" class="s4" d="m122.4 103.9c0 3.4-2.8 6.2-6.3 6.2-3.4 0-6.2-2.8-6.2-6.2 0-3.5 2.8-6.3 6.2-6.3 3.5 0 6.3 2.8 6.3 6.3z"/>
			<path id="&lt;Path&gt;" class="s4" d="m164.4 103.9c0 3.4 2.7 6.2 6.2 6.2 3.5 0 6.3-2.8 6.3-6.2 0-3.5-2.8-6.3-6.3-6.3-3.5 0-6.2 2.8-6.2 6.3z"/>
			<path id="&lt;Path&gt;" class="s3" d="m134.6 133c-0.6 0.5-1.4 0.7-2.2 0.7-2.1 0-3.8-1.7-3.8-3.8 0-2 1.7-3.7 3.8-3.7"/>
			<path id="&lt;Path&gt;" class="s3" d="m152.3 133c0.6 0.5 1.4 0.7 2.2 0.7 2.1 0 3.8-1.7 3.8-3.8 0-2-1.7-3.7-3.8-3.7"/>
			<path id="&lt;Path&gt;" class="s5" d="m172 60.8c0 0.8-0.7 1.5-1.5 1.5-0.9 0-1.6-0.7-1.6-1.5 0-0.9 0.7-1.6 1.6-1.6 0.8 0 1.5 0.7 1.5 1.6z"/>
			<path id="&lt;Path&gt;" class="s5" d="m170.5 52.2c0 0.8-0.7 1.5-1.6 1.5-0.8 0-1.5-0.7-1.5-1.5 0-0.9 0.7-1.6 1.5-1.6 0.9 0 1.6 0.7 1.6 1.6z"/>
			<path id="&lt;Path&gt;" class="s5" d="m178.6 58.6c0 0.8-0.7 1.5-1.6 1.5-0.8 0-1.5-0.7-1.5-1.5 0-0.9 0.7-1.6 1.5-1.6 0.9 0 1.6 0.7 1.6 1.6z"/>
			<path id="&lt;Path&gt;" class="s6" d=""/>
			<g id="&lt;Group&gt;">
				<path id="&lt;Path&gt;" class="s2" d="m172.5 207.1c-11.6-8.2-9.4-26.5-7.6-35.3-5.6 2.6-12.3 4.1-20.2 4.1-7.4 0-13.7-1.5-19.1-4.1 1.8 8.7 4.1 27.1-7.5 35.3-13 9.2-47.3 11.3-57.8 50 23.1 16.5 51.4 26.2 81.9 26.2 32.8 0 63-11.2 87-29.9-11.7-35.2-44.2-37.4-56.7-46.3z"/>
			</g>
			<g id="&lt;Group&gt;">
				<path id="&lt;Path&gt;" class="s7" d="m163.9 191.4c-1.1-7.2 0-14.8 1-19.5-5.6 2.5-12.3 4-20.2 4-7.4 0-13.7-1.5-19.1-4.1 1 4.8 2.1 12.6 1 19.9 8.1 2.7 21.5 5.1 37.3-0.3z"/>
			</g>
			<path id="&lt;Path&gt;" class="s3" d="m139.4 157.8c0 0 4.4 2.6 9.1 0"/>
			<g id="&lt;Group&gt;">
				<path id="&lt;Path&gt;" class="s8" d="m146.7 283.2c34.3-1.1 65.6-14.4 89.6-35.7-3.1-8.1-8.9-15-19.2-17.5 0 0 4.8-31.5-26.2-33.3 0 0 8.1-21.9-15.8-31.4 0 0-2.7 2.2-4.2 3.3-1.6 1-5 2.8-5 2.8 3.4 2.6 20.2 13.7 11.4 25.8-9.8 13.7-24.5 2.9-26.8 23.1-1.8 16.2-4.3 24.4-5.2 27.1q0.1 0.3 0.1 0.5c-0.1-0.1-0.2-0.3-0.1-0.5-1-2.7-3.5-10.9-5.3-27.1-2.3-20.2-16.9-9.4-26.8-23.1-8.9-12.3 8.6-23.6 11.6-25.9 0 0-3.2-1.8-4.5-2.8-1.2-0.9-4.2-3.4-4.2-3.4-24.7 9.4-16.4 31.6-16.4 31.6-31.1 1.8-26.3 33.3-26.3 33.3-12 2.9-17.8 11.8-20.5 21.6 24.4 19.8 55.4 31.7 89.3 31.7 0.7 0 2.3 0 3.4-0.1q0.1 0 0.1 0 0.6 0 1 0z"/>
			</g>
			<g id="&lt;Group&gt;">
				<path id="&lt;Path&gt;" class="s3" d="m125.9 225.1c19.7 8.9 2 13.9 0 27.5-2 13.7-12.7 2.1-12.7 14.5"/>
				<path id="&lt;Path&gt;" class="s3" d="m99.7 196.7c0 0 3.3 10 12.6 19"/>
				<path id="&lt;Path&gt;" class="s3" d="m73.4 230c0 0 18.9-5.7 33.3-1.5"/>
				<path id="&lt;Path&gt;" class="s3" d="m99.7 203.5c0 0 3.1 16.3 17.7 26.5"/>
			</g>
			<g id="&lt;Group&gt;">
				<path id="&lt;Path&gt;" class="s3" d="m164.6 225.1c-19.7 8.9-1.9 13.9 0 27.5 2 13.7 12.7 2.1 12.7 14.5"/>
				<path id="&lt;Path&gt;" class="s3" d="m190.9 196.7c0 0-3.4 10-12.6 19"/>
				<path id="&lt;Path&gt;" class="s3" d="m217.1 230c0 0-18.9-5.7-33.3-1.5"/>
				<path id="&lt;Path&gt;" class="s3" d="m190.9 203.5c0 0-3.2 16.3-17.8 26.5"/>
			</g>
		</g>
	</g>
</svg>