<svg version="1.2" xmlns="http://www.w3.org/2000/svg" viewBox="0 0 284 284" width="284" height="284">
	<title>kendall-svg</title>
	<defs>
		<linearGradient id="g1" x1="-17.1" y1="260.3" x2="-17.1" y2="20.3" gradientUnits="userSpaceOnUse">
			<stop offset=".008" stop-color="#fe3158"/>
			<stop offset="1" stop-color="#fe6e74"/>
		</linearGradient>
		<linearGradient id="g2" x1="68.9" y1="64.8" x2="90.8" y2="64.8" gradientUnits="userSpaceOnUse">
			<stop offset="0" stop-color="#fe3158"/>
			<stop offset="1" stop-color="#fe3158"/>
		</linearGradient>
		<linearGradient id="g3" x1="117.7" y1="34.3" x2="159.8" y2="34.3" gradientUnits="userSpaceOnUse">
			<stop offset="0" stop-color="#fe3158"/>
			<stop offset="1" stop-color="#fe3158"/>
		</linearGradient>
		<linearGradient id="g4" x1="100.4" y1="49.1" x2="122.5" y2="49.1" gradientUnits="userSpaceOnUse">
			<stop offset="0" stop-color="#fe3158"/>
			<stop offset="1" stop-color="#fe3158"/>
		</linearGradient>
		<linearGradient id="g5" x1="140.3" y1="48.5" x2="150.4" y2="48.5" gradientUnits="userSpaceOnUse">
			<stop offset="0" stop-color="#fe3158"/>
			<stop offset="1" stop-color="#fe3158"/>
		</linearGradient>
		<linearGradient id="g6" x1="89.3" y1="160.7" x2="99.2" y2="160.7" gradientUnits="userSpaceOnUse">
			<stop offset="0" stop-color="#fe3158"/>
			<stop offset="1" stop-color="#fe3158"/>
		</linearGradient>
		<linearGradient id="g7" x1="167.5" y1="39.5" x2="216" y2="39.5" gradientUnits="userSpaceOnUse">
			<stop offset="0" stop-color="#fe3158"/>
			<stop offset="1" stop-color="#fe3158"/>
		</linearGradient>
		<linearGradient id="g8" x1="170.6" y1="53.3" x2="205.7" y2="53.3" gradientUnits="userSpaceOnUse">
			<stop offset="0" stop-color="#fe3158"/>
			<stop offset="1" stop-color="#fe3158"/>
		</linearGradient>
		<linearGradient id="g9" x1="199.7" y1="166.9" x2="201.2" y2="166.9" gradientUnits="userSpaceOnUse">
			<stop offset="0" stop-color="#fe3158"/>
			<stop offset="1" stop-color="#fe3158"/>
		</linearGradient>
	</defs>
	<style>
		.s0 { fill: #f2dd20 } 
		.s1 { fill: url(#g1) } 
		.s2 { fill: #f7cfa4 } 
		.s3 { fill: #08393d } 
		.s4 { fill: #6273cd } 
		.s5 { fill: #fe6458 } 
		.s6 { fill: none;stroke: #08393d;stroke-linecap: round;stroke-linejoin: round;stroke-width: 2 } 
		.s7 { fill: none;stroke: url(#g2);stroke-linecap: round;stroke-linejoin: round;stroke-width: 4 } 
		.s8 { fill: none;stroke: url(#g3);stroke-linecap: round;stroke-linejoin: round;stroke-width: 4 } 
		.s9 { fill: none;stroke: url(#g4);stroke-linecap: round;stroke-linejoin: round;stroke-width: 4 } 
		.s10 { fill: none;stroke: url(#g5);stroke-linecap: round;stroke-linejoin: round;stroke-width: 4 } 
		.s11 { fill: none;stroke: url(#g6);stroke-linecap: round;stroke-linejoin: round;stroke-width: 4 } 
		.s12 { fill: none;stroke: url(#g7);stroke-linecap: round;stroke-linejoin: round;stroke-width: 4 } 
		.s13 { fill: none;stroke: url(#g8);stroke-linecap: round;stroke-linejoin: round;stroke-width: 4 } 
		.s14 { fill: none;stroke: url(#g9);stroke-linecap: round;stroke-linejoin: round;stroke-width: 4 } 
		.s15 { mix-blend-mode: multiply;fill: #cecece } 
		.s16 { fill: #ff655b } 
	</style>
	<g id="OBJECTS">
		<g id="&lt;Group&gt;">
			<g id="&lt;Group&gt;">
				<path id="&lt;Path&gt;" class="s0" d="m283.6 141.8c0 78.1-63.4 141.5-141.6 141.5-78.1 0-141.5-63.4-141.5-141.5 0-78.2 63.4-141.6 141.5-141.6 78.2 0 141.6 63.4 141.6 141.6z"/>
			</g>
			<g id="&lt;Group&gt;">
				<path id="&lt;Path&gt;" class="s1" d="m85.3 260.3c-1.8 0-49-9.7-38.4-55.2 10.7-45.5 28.7-25.7 25.2-93.7-4.4-87 61-108.2 92.2-78.4 0 0 32.5-23.2 53.3 17.2 20.8 40.5-1.1 103.8 7.3 151.7 3.6 20.8 24.1 57.8-39.9 50.5-64-7.3-72.8 7.9-99.7 7.9z"/>
			</g>
			<g id="&lt;Group&gt;">
				<path id="&lt;Path&gt;" class="s2" d="m194.7 94.1c0 0-25.2-16.7-32-43.6 0 0-22.3 30.7-66.9 32.4 0 0-7.4 70.9 29.7 88.8 5.4 2.7 11.7 4.2 19.1 4.2 7.9 0 14.6-1.5 20.2-4.1 36.2-16.5 29.9-77.7 29.9-77.7z"/>
			</g>
			<g id="&lt;Group&gt;">
				<path id="&lt;Path&gt;" class="s3" d="m133.6 92.1c-2.4-1.6-5-2.9-7.7-3.6-2.6-0.8-5.3-1.1-8-0.9-2.7 0.2-5.4 0.9-8.1 1.9-1.3 0.5-2.6 1.2-3.9 1.7-1.3 0.7-2.6 1.5-4 2.1-0.3 0.2-0.6 0-0.8-0.3-0.1-0.2 0-0.4 0.1-0.6 1.1-1.1 2.2-2.2 3.3-3.2 1.3-0.9 2.5-1.9 3.9-2.7 2.8-1.5 5.9-2.5 9.2-2.9 3.2-0.2 6.6 0.3 9.6 1.7 2.9 1.3 5.5 3.4 7.2 6.1 0.2 0.2 0.1 0.6-0.1 0.8-0.2 0.1-0.5 0.1-0.7-0.1z"/>
			</g>
			<g id="&lt;Group&gt;">
				<path id="&lt;Path&gt;" class="s4" d="m116.2 109.6c3.5 0 6.3-2.8 6.3-6.3q0-1.2-0.4-2.2c-4.7-1.7-8.9-0.8-12 0.6q-0.2 0.8-0.2 1.6c0 3.5 2.8 6.3 6.3 6.3z"/>
			</g>
			<g id="&lt;Group&gt;">
				<path id="&lt;Path&gt;" class="s3" d="m104.1 105c1.4-2.1 3.3-3.7 5.5-4.9 2.1-1.2 4.7-1.9 7.3-1.9 2.6 0 5.2 0.6 7.3 1.9 1.2 0.5 2.1 1.5 3.1 2.2 0.8 0.8 1.6 1.8 2.3 2.7 0.3 0.3 0.2 0.8-0.1 1-0.2 0.2-0.5 0.2-0.7 0.1l-0.1-0.1c-1.1-0.4-2-1-3-1.5l-1.4-0.7q-0.7-0.4-1.5-0.6-0.7-0.2-1.5-0.5l-1.4-0.3c-0.5-0.1-1-0.1-1.5-0.2-0.5 0-1-0.1-1.5 0-4-0.1-7.9 1.6-11.8 3.8-0.4 0.2-0.8 0.1-1-0.2-0.1-0.3-0.1-0.5 0-0.8z"/>
			</g>
			<g id="&lt;Group&gt;">
				<path id="&lt;Path&gt;" class="s3" d="m152.4 91.4c1.7-2.7 4.3-4.8 7.2-6.1 3-1.4 6.4-1.9 9.6-1.7 3.3 0.4 6.4 1.4 9.2 2.9 1.4 0.8 2.6 1.8 3.9 2.7 1.1 1 2.2 2.1 3.3 3.2 0.2 0.3 0.2 0.6-0.1 0.8-0.1 0.2-0.4 0.2-0.6 0.1-1.4-0.6-2.7-1.4-4-2.1-1.3-0.5-2.6-1.2-3.9-1.7-2.7-1-5.4-1.7-8.1-1.9-2.7-0.2-5.4 0.1-8 0.9-2.7 0.7-5.3 2-7.7 3.6-0.3 0.2-0.7 0.1-0.8-0.1q-0.3-0.3 0-0.6z"/>
			</g>
			<g id="&lt;Group&gt;">
				<path id="&lt;Path&gt;" class="s4" d="m170.6 109.6c-3.5 0-6.3-2.8-6.3-6.3q0-1.2 0.4-2.2c4.7-1.7 8.9-0.8 12 0.6q0.2 0.8 0.2 1.6c0 3.5-2.8 6.3-6.3 6.3z"/>
			</g>
			<g id="&lt;Group&gt;">
				<path id="&lt;Path&gt;" class="s3" d="m181.7 106c-3.9-2.2-7.8-3.9-11.8-3.8-0.5-0.1-1 0-1.5 0-0.5 0.1-1 0.1-1.5 0.2l-1.4 0.3q-0.8 0.3-1.5 0.5-0.8 0.2-1.5 0.6l-1.4 0.7c-1 0.5-1.9 1.1-3 1.5l-0.1 0.1c-0.4 0.1-0.8 0-0.9-0.4-0.1-0.2-0.1-0.5 0.1-0.7 0.7-0.9 1.5-1.9 2.3-2.7 1-0.7 1.9-1.7 3.1-2.2 2.1-1.3 4.7-1.9 7.3-1.9 2.6 0 5.2 0.7 7.3 1.9 2.2 1.2 4.1 2.8 5.5 4.9 0.2 0.4 0.1 0.8-0.2 1-0.3 0.2-0.6 0.2-0.8 0z"/>
			</g>
			<g id="&lt;Group&gt;" style="opacity: .5">
				<path id="&lt;Path&gt;" class="s5" d="m119.3 123.5c0 4.7-3.9 8.6-8.6 8.6-4.7 0-8.6-3.9-8.6-8.6 0-4.7 3.9-8.6 8.6-8.6 4.7 0 8.6 3.9 8.6 8.6z"/>
			</g>
			<g id="&lt;Group&gt;" style="opacity: .5">
				<path id="&lt;Path&gt;" class="s5" d="m167.5 123.5c0 4.7 3.9 8.6 8.6 8.6 4.7 0 8.6-3.9 8.6-8.6 0-4.7-3.9-8.6-8.6-8.6-4.7 0-8.6 3.9-8.6 8.6z"/>
			</g>
			<path id="&lt;Path&gt;" class="s6" d="m137.1 100.1c0 0 5.6 16.8 1.9 28.6-3.6 11.8 10.1 9 8.2-1.1"/>
			<path id="&lt;Path&gt;" class="s6" d="m139 128.7c0 0-7.6 3.7-5.6 4.7 2 0.9 5.1 0 5.1 0"/>
			<path id="&lt;Path&gt;" class="s6" d="m147.4 128.7c0 0 7.6 3.7 5.6 4.7-2 0.9-5.1 0-5.1 0"/>
			<g id="&lt;Group&gt;">
				<g id="&lt;Group&gt;">
					<path id="&lt;Path&gt;" class="s7" d="m90.8 64.8c-8.1 18.8-7.1 41.4-6.8 55.1 0.4 18.2 10.5 45.6-8.8 72.1-6.7 9.2-7.3 17.4-5.2 24.2"/>
				</g>
				<g id="&lt;Group&gt;">
					<path id="&lt;Path&gt;" class="s8" d="m159.8 41.2c0 0-20.8-14-42.1-2.1"/>
				</g>
				<g id="&lt;Group&gt;">
					<path id="&lt;Path&gt;" class="s9" d="m122.5 49.1c-9.9 2.3-19.3 8.7-22.1 24"/>
				</g>
				<g id="&lt;Group&gt;">
					<path id="&lt;Path&gt;" class="s10" d="m150.4 50.5c0 0-4.2-1.3-10.1-2"/>
				</g>
				<g id="&lt;Group&gt;">
					<path id="&lt;Path&gt;" class="s11" d="m97.8 160.7c0 0 6.4 11.5-8.5 39.1"/>
				</g>
				<g id="&lt;Group&gt;">
					<path id="&lt;Path&gt;" class="s12" d="m167.5 44.1c0 0 26-14.6 38.6 7.9 12.7 22.5 10.2 62.6 8.5 95-1.7 32.4-7.7 49.3 1.4 62.7"/>
				</g>
				<g id="&lt;Group&gt;">
					<path id="&lt;Path&gt;" class="s13" d="m170.6 53.3c0 0 31.9-2.8 34.5 37.6 2.4 37.1-3.3 57.4-2.9 66.9"/>
				</g>
				<g id="&lt;Group&gt;">
					<path id="&lt;Path&gt;" class="s14" d="m201.2 166.9c0 0-3.1 8.7-0.3 15.7"/>
				</g>
			</g>
			<g id="&lt;Group&gt;">
				<path id="&lt;Path&gt;" class="s5" d="m144.4 156.2c-7 0-10.5-7-4.5-13.7 1.8-2.1 3.3-1.4 4.5 0.6 0 0 2.1-4.8 5.1-1.7 2.9 3.2 6.7 14.8-5.1 14.8z"/>
			</g>
			<path id="&lt;Path&gt;" class="s6" d="m132.7 146.7c0.8 0.7 10.7 6.8 23.3-2.1"/>
			<g id="&lt;Group&gt;">
				<path id="&lt;Path&gt;" class="s2" d="m144.6 175.9c-7.5 0-13.8-1.5-19.2-4.1 1.9 8.7 4.1 27.1-7.5 35.3-13 9.2-47.3 11.3-57.8 50 23.1 16.5 51.4 26.2 81.9 26.2 32.8 0 63-11.2 87-29.9-11.7-35.2-44.1-37.4-56.7-46.3-11.6-8.2-9.4-26.5-7.5-35.3"/>
			</g>
			<g id="&lt;Group&gt;">
				<path id="&lt;Path&gt;" class="s15" d="m163.8 191.4c-1.1-7.2 0-14.8 1-19.5-5.6 2.5-12.3 4-20.2 4-7.4 0-13.7-1.5-19.1-4.1 1 4.8 2.1 12.6 1 19.9 8.1 2.7 21.5 5.1 37.3-0.3z"/>
			</g>
			<g id="&lt;Group&gt;">
				<path id="&lt;Path&gt;" class="s16" d="m230.1 257.1c-4.8-17.8-14.7-27.9-25.2-34.4 0 0-13.3 8.3-18.7 27.6 0 0-10 6-41.1 6-31.1 0-41.1-6-41.1-6-5.3-19.3-18.7-27.6-18.7-27.6-10.5 6.5-20.4 16.6-25.2 34.4 23.1 16.5 51.4 26.2 81.9 26.2q1.6 0 3.1-0.1 1.5 0.1 3.1 0.1c30.5 0 58.8-9.7 81.9-26.2z"/>
			</g>
		</g>
	</g>
</svg>