<svg version="1.2" xmlns="http://www.w3.org/2000/svg" viewBox="0 0 284 284" width="284" height="284">
	<title>morgan-svg</title>
	<defs>
		<linearGradient id="g1" x1="29" y1="239.6" x2="29" y2="24" gradientUnits="userSpaceOnUse">
			<stop offset="0" stop-color="#6172cc"/>
			<stop offset=".383" stop-color="#9d6eff"/>
			<stop offset=".474" stop-color="#9d6eff"/>
		</linearGradient>
	</defs>
	<style>
		.s0 { fill: #f2dd20 } 
		.s1 { fill: url(#g1) } 
		.s2 { fill: none;stroke: #0b5059;stroke-linecap: round;stroke-linejoin: round;stroke-width: 2 } 
		.s3 { fill: #c48349 } 
		.s4 { fill: #08393d } 
		.s5 { fill: #fe6458 } 
		.s6 { fill: none;stroke: #08393d;stroke-linecap: round;stroke-linejoin: round;stroke-width: 2 } 
		.s7 { fill: #9b6538 } 
		.s8 { fill: #fbffff } 
	</style>
	<g id="OBJECTS">
		<g id="&lt;Group&gt;">
			<g id="&lt;Group&gt;">
				<path id="&lt;Path&gt;" class="s0" d="m283.1 142.2c0 78.2-63.4 141.5-141.5 141.5-78.2 0-141.6-63.3-141.6-141.5 0-78.2 63.4-141.5 141.6-141.5 78.1 0 141.5 63.3 141.5 141.5z"/>
			</g>
			<g id="&lt;Group&gt;">
				<path id="&lt;Path&gt;" class="s1" d="m212.7 194.5c0 0 19.9-7.4 27.7-28.8 13.2-36.4-7.6-45.3-7.6-45.3 0 0 14.6-8.6 3.9-34.4-10.6-25.8-30.6-13.3-30.6-13.3 0 0 15.7-13.5 1.7-31-14-17.5-47-3.9-47-3.9 0 0-45.1-31.3-70.4 0.3-25.2 31.6-9.5 36.3-9.5 36.3 0 0-22.5 8.9-19.1 20.9 3.4 12-28.1 14.2-11.8 39.8 0 0-28.9 42.1 1.7 54.2 29.2 11.5 5.8 55.1 85.6 49.8 0 0 18.8-3.4 23.5-17.3 4.7-13.9 35.9 12.3 51.9-27.3z"/>
			</g>
			<g id="&lt;Group&gt;">
				<path id="&lt;Path&gt;" class="s2" d="m87.6 79.1c0 0-16.8 6.4-13.4 24.2 3.3 17.9-13.1 9.9-10.2 31.8 3 21.9-20.5 26.1-0.3 44.2"/>
			</g>
			<g id="&lt;Group&gt;">
				<path id="&lt;Path&gt;" class="s2" d="m87.6 185.3c0 0-15.6-14.7-3.6-40.4"/>
			</g>
			<g id="&lt;Group&gt;">
				<path id="&lt;Path&gt;" class="s2" d="m73.7 191.1c0 0 9.8 31.5 43.7 36.9"/>
			</g>
			<g id="&lt;Group&gt;">
				<path id="&lt;Path&gt;" class="s2" d="m79.5 191.1c0 0 6.7 16.2 21.4 20.9"/>
			</g>
			<g id="&lt;Group&gt;">
				<path id="&lt;Path&gt;" class="s2" d="m97.5 53.5c-12.1 18.8-5.1 19.4-5.1 19.4"/>
			</g>
			<g id="&lt;Group&gt;">
				<path id="&lt;Path&gt;" class="s2" d="m155.8 44.1c0 0-26.6-14.1-45.2-4.8"/>
			</g>
			<g id="&lt;Group&gt;">
				<path id="&lt;Path&gt;" class="s2" d="m150.9 47.8c0 0-29.8-8.2-39.1 12.4"/>
			</g>
			<g id="&lt;Group&gt;">
				<path id="&lt;Path&gt;" class="s2" d="m129.6 56.3c-2.3 1.2-4.7 3.1-6.5 6.3"/>
			</g>
			<g id="&lt;Group&gt;">
				<path id="&lt;Path&gt;" class="s2" d="m139.9 55.1c0 0-1.7-0.4-4.1-0.3"/>
			</g>
			<g id="&lt;Group&gt;">
				<path id="&lt;Path&gt;" class="s2" d="m165.5 44.1c0 0 25-6.7 31.6 2.1 10.7 14 0 21.5 0 21.5"/>
			</g>
			<g id="&lt;Group&gt;">
				<path id="&lt;Path&gt;" class="s2" d="m168.7 49.6c0 0 16.6-2.6 20.2 6.7"/>
			</g>
			<g id="&lt;Group&gt;">
				<path id="&lt;Path&gt;" class="s2" d="m231.1 137.6c2.5 8.2 1.7 18.5-7 30.3-17.5 23.8-35.2 16.3-35.2 16.3"/>
			</g>
			<g id="&lt;Group&gt;">
				<path id="&lt;Path&gt;" class="s2" d="m201.9 80.3c0 0 17.1-2.8 23.6 15 2.9 8.1 2.5 14.2 1.9 18.4"/>
			</g>
			<g id="&lt;Group&gt;">
				<path id="&lt;Path&gt;" class="s2" d="m186.4 177.8c0 0 24.2 0.2 32.6-24.7"/>
			</g>
			<g id="&lt;Group&gt;">
				<path id="&lt;Path&gt;" class="s3" d="m171.8 207.5c-11.6-8.2-9.4-26.5-7.5-35.2-5.7 2.6-12.3 4.1-20.2 4.1-7.5 0-13.8-1.5-19.2-4.2 1.9 8.7 4.1 27.1-7.5 35.3-13 9.2-47.3 11.3-57.8 50.1 23.1 16.4 51.4 26.2 81.9 26.2 32.8 0 63-11.2 87-30-11.7-35.1-44.1-37.4-56.7-46.3z"/>
			</g>
			<g id="&lt;Group&gt;">
				<path id="&lt;Path&gt;" class="s3" d="m194.2 94.7c0 0-25.3-16.7-32-43.7 0 0-22.3 30.7-67 32.4 0 0-7.4 70.9 29.7 88.8 5.4 2.7 11.7 4.2 19.2 4.2 7.9 0 14.5-1.5 20.2-4.1 36.2-16.5 29.9-77.6 29.9-77.6z"/>
			</g>
			<g id="&lt;Group&gt;">
				<path id="&lt;Path&gt;" class="s4" d="m153.6 91.9c1.7-2.7 4.3-4.8 7.3-6.1 2.9-1.4 6.3-1.9 9.5-1.7 3.3 0.4 6.4 1.4 9.2 2.9 1.4 0.8 2.6 1.8 3.9 2.7 1.1 1 2.3 2.1 3.3 3.2 0.2 0.3 0.2 0.6-0.1 0.8-0.1 0.2-0.4 0.2-0.6 0.1-1.4-0.6-2.7-1.4-4-2-1.3-0.6-2.6-1.3-3.9-1.8-2.7-1-5.4-1.7-8.1-1.9-2.7-0.2-5.4 0.1-8 0.9-2.7 0.7-5.3 2-7.7 3.6v0.1c-0.3 0.1-0.6 0.1-0.8-0.2q-0.1-0.3 0-0.6z"/>
			</g>
			<g id="&lt;Group&gt;" style="opacity: .5">
				<path id="&lt;Path&gt;" class="s5" d="m120.5 124c0 4.7-3.9 8.6-8.6 8.6-4.7 0-8.5-3.9-8.5-8.6 0-4.7 3.8-8.6 8.5-8.6 4.7 0 8.6 3.9 8.6 8.6z"/>
			</g>
			<g id="&lt;Group&gt;" style="opacity: .5">
				<path id="&lt;Path&gt;" class="s5" d="m168.7 124c0 4.7 3.9 8.6 8.6 8.6 4.7 0 8.6-3.9 8.6-8.6 0-4.7-3.9-8.6-8.6-8.6-4.7 0-8.6 3.9-8.6 8.6z"/>
			</g>
			<path id="&lt;Path&gt;" class="s6" d="m137.3 126.9c0 0 3.9 8.2 7.5 8.2 3.7 0 7-7.8 7.1-11.1 0.1-7.2-4.5-16.3-1.3-28.7"/>
			<path id="&lt;Path&gt;" class="s5" d="m144.6 143.9c7.2-3.7 12.3 4.2 12.3 4.2-2.7 9-12.3 6.5-12.3 6.5 0 0-9.6 2.5-12.4-6.5 0 0 5.2-7.9 12.4-4.2z"/>
			<path id="&lt;Path&gt;" class="s4" d="m172.1 110.1c3.6 0 6.4-2.8 6.4-6.3q0-1.2-0.4-2.2c-4.8-1.7-9.1-0.8-12.2 0.6q-0.2 0.8-0.2 1.6c0 3.5 2.9 6.3 6.4 6.3z"/>
			<g id="&lt;Group&gt;">
				<path id="&lt;Path&gt;" class="s4" d="m181.4 103.9c-1.9-0.4-3.7-1-5.4-1.1q-2.6-0.4-5.1 0c-3.4 0.5-6.7 1.9-10.1 3.7-0.4 0.2-0.8 0.1-1-0.3-0.1-0.2-0.1-0.5 0-0.7 1.1-1.8 2.7-3.2 4.5-4.4 1.8-1.1 3.8-1.9 6-2.2 1.1-0.2 2.2-0.2 3.3-0.2 1.1 0.2 2.2 0.3 3.2 0.7 2.1 0.6 3.9 1.9 5.3 3.3 0.3 0.3 0.3 0.8 0 1-0.2 0.2-0.4 0.3-0.6 0.2z"/>
			</g>
			<path id="&lt;Path&gt;" class="s4" d="m172.3 98.3c0 0 3.7 3.6 11.1-1.2 0 0-1.9 11.7-11.1 1.2z"/>
			<g id="&lt;Group&gt;">
				<path id="&lt;Path&gt;" class="s4" d="m134.8 92.6c-2.4-1.6-5-2.9-7.7-3.6-2.6-0.8-5.3-1.1-8-0.9-2.7 0.2-5.4 0.9-8 1.9-1.4 0.5-2.6 1.2-4 1.8-1.3 0.6-2.6 1.4-4 2-0.3 0.2-0.6 0-0.8-0.3-0.1-0.2 0-0.4 0.1-0.6 1.1-1.1 2.2-2.2 3.3-3.2 1.3-0.9 2.5-1.9 3.9-2.7 2.8-1.5 5.9-2.5 9.2-2.9 3.3-0.2 6.6 0.3 9.6 1.7 2.9 1.3 5.5 3.4 7.2 6.1 0.2 0.2 0.1 0.6-0.1 0.8-0.2 0.1-0.5 0.1-0.6 0z"/>
			</g>
			<path id="&lt;Path&gt;" class="s4" d="m117.1 110.1c-3.5 0-6.4-2.8-6.4-6.3q0-1.2 0.4-2.2c4.8-1.7 9.1-0.8 12.2 0.6q0.2 0.8 0.3 1.6c0 3.5-2.9 6.3-6.5 6.3z"/>
			<g id="&lt;Group&gt;">
				<path id="&lt;Path&gt;" class="s4" d="m107.1 102.7c1.5-1.4 3.3-2.7 5.4-3.3 1-0.4 2.1-0.5 3.1-0.7 1.1 0 2.2 0 3.3 0.2 2.2 0.3 4.3 1.1 6.1 2.2 1.7 1.2 3.3 2.6 4.4 4.4 0.2 0.4 0.1 0.8-0.2 1-0.3 0.2-0.5 0.2-0.7 0h-0.1c-3.4-1.8-6.7-3.2-10.1-3.7q-2.5-0.4-5.1 0c-1.7 0.1-3.4 0.7-5.4 1.1-0.4 0.1-0.8-0.1-0.9-0.5 0-0.2 0-0.5 0.2-0.7z"/>
			</g>
			<path id="&lt;Path&gt;" class="s4" d="m116.9 98.3c0 0-3.7 3.6-11.1-1.2 0 0 1.9 11.7 11.1 1.2z"/>
			<g id="&lt;Group&gt;">
				<path id="&lt;Path&gt;" class="s7" d="m163.2 191.9c-1-7.3 0.1-14.8 1.1-19.6-5.7 2.6-12.3 4.1-20.2 4.1-7.5 0-13.8-1.5-19.2-4.1 1.1 4.8 2.2 12.5 1.1 19.9 8.1 2.7 21.5 5.1 37.2-0.3z"/>
			</g>
			<path id="&lt;Path&gt;" class="s6" d="m126.2 145.9c0 0 6 3.7 18.4 3.7"/>
			<path id="&lt;Path&gt;" class="s6" d="m163 145.9c0 0-6.1 3.7-18.4 3.7"/>
			<g id="&lt;Group&gt;">
				<path id="&lt;Path&gt;" class="s8" d="m220.8 238.4q-2.3-3.3-4.9-6c-66.4 22.4-121.8 6.2-141.4-1.2-2.4 2.3-4.6 5-6.7 8.1 48 20 126.2 5.2 153-0.9z"/>
			</g>
			<g id="&lt;Group&gt;">
				<path id="&lt;Path&gt;" class="s8" d="m64.8 244.2q-0.2 0.4-0.4 0.8c62.1 33.8 143.5 12.9 163.4 6.9q-1.3-3.5-2.8-6.5c-25.5 5-111.2 19.4-160.2-1.2z"/>
			</g>
			<path id="&lt;Path&gt;" class="s5" d="m67.8 239.3q-1.6 2.3-3 4.9c49 20.6 134.7 6.2 160.2 1.2q-1.9-3.8-4.2-7c-26.8 6.1-105 20.9-153 0.9z"/>
			<path id="&lt;Path&gt;" class="s5" d="m141.3 283.8q0.1 0 0.2 0c32.8 0 63-11.2 87-30q0-0.1-0.1-0.2c-24 18.9-54.2 30.1-87.1 30.2z"/>
			<g id="&lt;Group&gt;">
				<path id="&lt;Path&gt;" class="s8" d="m228.1 252.8q-3 1.7-6.1 3.1-0.3 0.2-0.7 0.4-2.9 1.4-5.9 2.7-0.4 0.1-0.8 0.3-6.1 2.5-12.2 4.5-0.4 0.1-0.8 0.2-2.9 1-5.9 1.8-0.4 0.1-0.7 0.2-6.1 1.6-12.2 2.7-0.3 0-0.7 0.1-3 0.5-5.9 0.9-0.3 0.1-0.6 0.1-3 0.4-6 0.7-3 0.3-5.9 0.5-0.4 0-0.8 0-2.9 0.2-5.7 0.3-0.3 0-0.5 0-2.9 0-5.6 0-0.2 0-0.3 0-2.8 0-5.6-0.1-0.4-0.1-0.8-0.1-2.7-0.1-5.4-0.3-0.2 0-0.4 0-2.7-0.2-5.3-0.5-0.2 0-0.4 0-2.6-0.3-5.2-0.7-0.4 0-0.8-0.1-2.6-0.3-5.1-0.7-0.1 0-0.3-0.1-2.4-0.4-4.8-0.8-0.3-0.1-0.6-0.1-2.4-0.5-4.7-1-0.4 0-0.8-0.1-2.3-0.5-4.6-1.1 0 0-0.1 0-2.3-0.5-4.4-1.1-0.3-0.1-0.6-0.2-2.2-0.5-4.3-1.1-0.3-0.1-0.6-0.2-4.2-1.2-8.1-2.5-0.3-0.1-0.6-0.2-1.9-0.6-3.6-1.2-0.3-0.1-0.6-0.2-3.6-1.2-6.8-2.5-0.3-0.1-0.5-0.2-1.6-0.6-3-1.2-0.2 0-0.4-0.1-1.4-0.6-2.8-1.2-1.4-0.6-2.6-1.1-0.2-0.1-0.4-0.2-1.2-0.5-2.3-1-0.1 0-0.2-0.1-1.1-0.5-2.1-1-0.6 1.7-1.2 3.4 0 0.1-0.1 0.2-0.6 1.8-1.1 3.7c20 14.2 43.9 23.4 69.8 25.6q1 0.1 1.9 0.2 1.9 0.1 3.9 0.2 2.4 0.1 4.8 0.1 0.7 0 1.3 0.1c32.9-0.1 63.1-11.3 87.1-30.2q-0.1-0.4-0.3-0.8z"/>
			</g>
			<path id="&lt;Path&gt;" class="s5" d="m64.4 245q-1.3 2.5-2.4 5.3 1 0.5 2.1 1 0.1 0.1 0.2 0.1 1.1 0.5 2.3 1 0.2 0.1 0.4 0.2 1.2 0.5 2.6 1.1 1.4 0.6 2.8 1.2 0.2 0.1 0.4 0.1 1.4 0.6 3 1.2 0.2 0.1 0.5 0.2 3.2 1.3 6.8 2.5 0.3 0.1 0.6 0.2 1.7 0.6 3.6 1.2 0.3 0.1 0.6 0.2 3.9 1.3 8.1 2.5 0.3 0.1 0.6 0.2 2.1 0.6 4.3 1.1 0.3 0.1 0.6 0.2 2.1 0.6 4.4 1.1 0.1 0 0.1 0 2.3 0.6 4.6 1.1 0.4 0.1 0.8 0.1 2.3 0.5 4.7 1 0.3 0 0.6 0.1 2.4 0.4 4.8 0.8 0.2 0.1 0.3 0.1 2.5 0.4 5.1 0.7 0.4 0.1 0.8 0.1 2.6 0.4 5.2 0.7 0.2 0 0.4 0 2.6 0.3 5.3 0.5 0.2 0 0.4 0 2.7 0.2 5.4 0.3 0.4 0 0.8 0.1 2.8 0.1 5.6 0.1 0.1 0 0.3 0 2.7 0 5.6 0 0.2 0 0.5 0 2.8-0.1 5.7-0.3 0.4 0 0.8 0 2.9-0.2 5.9-0.5 3-0.3 6-0.7 0.3 0 0.6-0.1 2.9-0.4 5.9-0.9 0.4-0.1 0.7-0.1 6.1-1.1 12.2-2.7 0.3-0.1 0.7-0.2 3-0.8 5.9-1.8 0.4-0.1 0.8-0.2 6.1-2 12.2-4.5 0.4-0.2 0.8-0.3 3-1.3 5.9-2.7 0.4-0.2 0.7-0.4 3.1-1.4 6.1-3.1-0.1-0.4-0.3-0.9c-19.9 6-101.3 26.9-163.4-6.9z"/>
		</g>
	</g>
</svg>