<svg version="1.2" xmlns="http://www.w3.org/2000/svg" viewBox="0 0 284 283" width="284" height="283">
	<title>tegan-svg</title>
	<defs>
		<linearGradient id="g1" x1="68.1" y1="190.4" x2="68.1" y2="9.8" gradientUnits="userSpaceOnUse">
			<stop offset="0" stop-color="#fe4558"/>
			<stop offset="1" stop-color="#febd58"/>
		</linearGradient>
		<linearGradient id="g2" x1="110.9" y1="76" x2="110.9" y2="64.7" gradientUnits="userSpaceOnUse">
			<stop offset="0" stop-color="#febd58"/>
			<stop offset="1" stop-color="#fe4558"/>
		</linearGradient>
		<linearGradient id="g3" x1="152.2" y1="51.5" x2="152.2" y2="40.7" gradientUnits="userSpaceOnUse">
			<stop offset="0" stop-color="#febd58"/>
			<stop offset="1" stop-color="#fe4558"/>
		</linearGradient>
		<linearGradient id="g4" x1="117.5" y1="68" x2="117.5" y2="27.7" gradientUnits="userSpaceOnUse">
			<stop offset="0" stop-color="#febd58"/>
			<stop offset="1" stop-color="#fe4558"/>
		</linearGradient>
		<linearGradient id="g5" x1="127" y1="58.3" x2="127" y2="37.1" gradientUnits="userSpaceOnUse">
			<stop offset="0" stop-color="#febd58"/>
			<stop offset="1" stop-color="#fe4558"/>
		</linearGradient>
		<linearGradient id="g6" x1="42.4" y1="154.6" x2="42.4" y2="140.4" gradientUnits="userSpaceOnUse">
			<stop offset="0" stop-color="#febd58"/>
			<stop offset="1" stop-color="#fe4558"/>
		</linearGradient>
		<linearGradient id="g7" x1="41.1" y1="122.5" x2="41.1" y2="85" gradientUnits="userSpaceOnUse">
			<stop offset="0" stop-color="#febd58"/>
			<stop offset="1" stop-color="#fe4558"/>
		</linearGradient>
		<linearGradient id="g8" x1="42" y1="164.7" x2="42" y2="130.3" gradientUnits="userSpaceOnUse">
			<stop offset="0" stop-color="#febd58"/>
			<stop offset="1" stop-color="#fe4558"/>
		</linearGradient>
		<linearGradient id="g9" x1="147.5" y1="88.7" x2="147.5" y2="44.6" gradientUnits="userSpaceOnUse">
			<stop offset="0" stop-color="#febd58"/>
			<stop offset="1" stop-color="#fe4558"/>
		</linearGradient>
		<linearGradient id="g10" x1="180.2" y1="88.7" x2="180.2" y2="64.7" gradientUnits="userSpaceOnUse">
			<stop offset="0" stop-color="#febd58"/>
			<stop offset="1" stop-color="#fe4558"/>
		</linearGradient>
		<linearGradient id="g11" x1="165.8" y1="147.5" x2="165.8" y2="96.1" gradientUnits="userSpaceOnUse">
			<stop offset="0" stop-color="#febd58"/>
			<stop offset="1" stop-color="#fe4558"/>
		</linearGradient>
		<linearGradient id="g12" x1="208.2" y1="141.1" x2="208.2" y2="131.6" gradientUnits="userSpaceOnUse">
			<stop offset="0" stop-color="#febd58"/>
			<stop offset="1" stop-color="#fe4558"/>
		</linearGradient>
		<linearGradient id="g13" x1="211.2" y1="120.6" x2="211.2" y2="112.7" gradientUnits="userSpaceOnUse">
			<stop offset="0" stop-color="#febd58"/>
			<stop offset="1" stop-color="#fe4558"/>
		</linearGradient>
		<linearGradient id="g14" x1="162" y1="141.1" x2="162" y2="119.4" gradientUnits="userSpaceOnUse">
			<stop offset="0" stop-color="#febd58"/>
			<stop offset="1" stop-color="#fe4558"/>
		</linearGradient>
		<linearGradient id="g15" x1="179.8" y1="160" x2="179.8" y2="145" gradientUnits="userSpaceOnUse">
			<stop offset="0" stop-color="#febd58"/>
			<stop offset="1" stop-color="#fe4558"/>
		</linearGradient>
	</defs>
	<style>
		.s0 { fill: #f2dd20 } 
		.s1 { fill: url(#g1) } 
		.s2 { fill: #f7cfa4 } 
		.s3 { fill: #e2b486 } 
		.s4 { fill: #08393d } 
		.s5 { fill: #88c067 } 
		.s6 { fill: none;stroke: #000000;stroke-linecap: round;stroke-linejoin: round;stroke-width: 2 } 
		.s7 { fill: none;stroke: #08393d;stroke-linecap: round;stroke-linejoin: round;stroke-width: 2 } 
		.s8 { fill: #fe6458 } 
		.s9 { fill: none;stroke: url(#g2);stroke-linecap: round;stroke-linejoin: round;stroke-width: 2 } 
		.s10 { fill: none;stroke: url(#g3);stroke-linecap: round;stroke-linejoin: round;stroke-width: 2 } 
		.s11 { fill: none;stroke: url(#g4);stroke-linecap: round;stroke-linejoin: round;stroke-width: 2 } 
		.s12 { fill: none;stroke: url(#g5);stroke-linecap: round;stroke-linejoin: round;stroke-width: 2 } 
		.s13 { fill: none;stroke: url(#g6);stroke-linecap: round;stroke-linejoin: round;stroke-width: 2 } 
		.s14 { fill: none;stroke: url(#g7);stroke-linecap: round;stroke-linejoin: round;stroke-width: 2 } 
		.s15 { fill: none;stroke: url(#g8);stroke-linecap: round;stroke-linejoin: round;stroke-width: 2 } 
		.s16 { fill: none;stroke: url(#g9);stroke-linecap: round;stroke-linejoin: round;stroke-width: 2 } 
		.s17 { fill: none;stroke: url(#g10);stroke-linecap: round;stroke-linejoin: round;stroke-width: 2 } 
		.s18 { fill: none;stroke: url(#g11);stroke-linecap: round;stroke-linejoin: round;stroke-width: 2 } 
		.s19 { fill: none;stroke: url(#g12);stroke-linecap: round;stroke-linejoin: round;stroke-width: 2 } 
		.s20 { fill: none;stroke: url(#g13);stroke-linecap: round;stroke-linejoin: round;stroke-width: 2 } 
		.s21 { fill: none;stroke: url(#g14);stroke-linecap: round;stroke-linejoin: round;stroke-width: 2 } 
		.s22 { fill: none;stroke: url(#g15);stroke-linecap: round;stroke-linejoin: round;stroke-width: 2 } 
		.s23 { fill: none;stroke: #08393d;stroke-linecap: round;stroke-linejoin: round;stroke-width: 4 } 
	</style>
	<g id="OBJECTS">
		<g id="&lt;Group&gt;">
			<g id="&lt;Group&gt;">
				<path id="&lt;Path&gt;" class="s0" d="m283.8 141.5c0 78.2-63.3 141.6-141.5 141.6-78.2 0-141.5-63.4-141.5-141.6 0-78.1 63.3-141.5 141.5-141.5 78.2 0 141.5 63.4 141.5 141.5z"/>
			</g>
			<g id="&lt;Group&gt;">
				<path id="&lt;Path&gt;" class="s1" d="m170.1 21.2c0 0-9.9-20.6-42.8-6.3-23.8 10.4-24.8 49.7-42.1 54.3-17.3 4.7-5.9 23.8-13.5 30.4-7.5 6.7-29.4 21-18.9 30.7 10.5 9.7 26.1 16.3 13.9 22-12.2 5.8-11.8 20.5 1.7 23.1 13.4 2.5 17.7-4.7 17.7-4.7 0 0 2.9 11.8 13.4 11.8 10.6 0 13-7.1 13-7.1 0 0 3.5 15.1 19.3 14.7 15.7-0.4 17.4-6.3 17.4-6.3 0 0 14.2 11.8 30.3 3.8 16.1-8 16.5-14.3 16.5-14.3 0 0 24 0.8 31.2-16.5 7.1-17.2 25.6-8.4 21.9-31.1-3.8-22.8-23.2-22.2-26.6-37-3.3-14.8-12.6-83.9-52.4-67.5z"/>
			</g>
			<g id="&lt;Group&gt;">
				<path id="&lt;Path&gt;" class="s2" d="m172.5 206.9c-11.6-8.2-9.4-26.6-7.6-35.3-5.6 2.6-12.3 4.1-20.2 4.1-7.4 0-13.7-1.5-19.1-4.1 1.8 8.7 4.1 27.1-7.5 35.3-13 9.2-47.3 11.2-57.8 50 23.1 16.5 51.4 26.2 81.9 26.2 32.8 0 63-11.2 87-29.9-11.7-35.2-44.1-37.4-56.7-46.3z"/>
			</g>
			<g id="&lt;Group&gt;">
				<path id="&lt;Path&gt;" class="s3" d="m163.9 191.2c-1-7.3 0-14.8 1-19.6-5.6 2.6-12.3 4.1-20.2 4.1-7.4 0-13.7-1.5-19.1-4.1 1 4.8 2.1 12.5 1 19.9 8.1 2.7 21.5 5.1 37.3-0.3z"/>
			</g>
			<g id="&lt;Group&gt;">
				<path id="&lt;Path&gt;" class="s2" d="m194.8 94c0 0-25.2-16.7-32-43.7 0 0-22.3 30.8-66.9 32.5 0 0-7.4 70.8 29.7 88.8 5.4 2.6 11.7 4.1 19.1 4.1 7.9 0 14.6-1.5 20.2-4.1 36.2-16.5 29.9-77.6 29.9-77.6z"/>
			</g>
			<g id="&lt;Group&gt;">
				<path id="&lt;Path&gt;" class="s4" d="m136.2 91.6c-2.4-1.6-5-2.9-7.7-3.6-2.6-0.8-5.3-1.1-8-0.9-2.7 0.2-5.4 0.9-8.1 1.9-1.3 0.5-2.6 1.2-3.9 1.8-1.3 0.6-2.6 1.4-4 2-0.3 0.2-0.7 0-0.8-0.3-0.1-0.2 0-0.4 0.1-0.6 1-1.1 2.2-2.2 3.3-3.2 1.3-0.9 2.5-1.9 3.9-2.7 2.8-1.5 5.9-2.5 9.2-2.9 3.2-0.2 6.6 0.3 9.5 1.7 3 1.3 5.6 3.4 7.3 6.1 0.2 0.2 0.1 0.6-0.1 0.8-0.2 0.1-0.5 0.1-0.7 0z"/>
			</g>
			<g id="&lt;Group&gt;">
				<path id="&lt;Path&gt;" class="s5" d="m118.8 109.1c3.5 0 6.3-2.8 6.3-6.3q0-1.2-0.4-2.2c-4.7-1.7-8.9-0.8-12 0.6q-0.2 0.8-0.2 1.6c0 3.5 2.8 6.3 6.3 6.3z"/>
			</g>
			<g id="&lt;Group&gt;">
				<path id="&lt;Path&gt;" class="s4" d="m106.7 104.5c1.4-2.1 3.3-3.7 5.4-4.9 2.2-1.2 4.8-1.9 7.4-1.9 2.6 0 5.2 0.6 7.3 1.9 1.2 0.6 2.1 1.5 3 2.2 0.9 0.8 1.7 1.8 2.4 2.7 0.3 0.3 0.2 0.8-0.1 1-0.2 0.2-0.5 0.2-0.7 0.1l-0.1-0.1c-1.1-0.4-2-1-3-1.5l-1.5-0.7q-0.7-0.3-1.4-0.6-0.8-0.2-1.5-0.5l-1.5-0.3c-0.4-0.1-0.9-0.1-1.4-0.2-0.5 0-1-0.1-1.5 0-4-0.1-8 1.6-11.8 3.8-0.4 0.2-0.8 0.1-1-0.2-0.1-0.3-0.1-0.5 0-0.8z"/>
			</g>
			<path id="&lt;Path&gt;" class="s6" d="m153 125.7c0 0 7.3 9.2-4.8 9.2h-2.2-2.2c-12.1 0-4.8-9.2-4.8-9.2"/>
			<g id="&lt;Group&gt;">
				<path id="&lt;Path&gt;" class="s4" d="m155 90.9c1.7-2.7 4.3-4.8 7.2-6.1 3-1.4 6.3-1.9 9.6-1.7 3.3 0.4 6.4 1.4 9.2 2.9 1.4 0.8 2.6 1.8 3.9 2.7 1.1 1 2.2 2.1 3.3 3.2 0.2 0.3 0.2 0.6-0.1 0.8-0.1 0.2-0.4 0.2-0.6 0.1-1.4-0.6-2.7-1.4-4-2-1.4-0.6-2.6-1.3-4-1.8-2.6-1-5.3-1.7-8-1.9-2.7-0.2-5.4 0.1-8 0.9-2.7 0.7-5.3 2-7.7 3.6l-0.1 0.1c-0.2 0.1-0.6 0.1-0.7-0.2q-0.3-0.3 0-0.6z"/>
			</g>
			<g id="&lt;Group&gt;">
				<path id="&lt;Path&gt;" class="s5" d="m173.2 109.1c-3.5 0-6.3-2.8-6.3-6.3q0-1.2 0.4-2.2c4.7-1.7 8.9-0.8 12 0.6q0.2 0.8 0.2 1.6c0 3.5-2.8 6.3-6.3 6.3z"/>
			</g>
			<g id="&lt;Group&gt;">
				<path id="&lt;Path&gt;" class="s4" d="m184.2 105.5c-3.8-2.2-7.8-3.9-11.7-3.8-0.5-0.1-1 0-1.5 0-0.5 0.1-1 0.1-1.5 0.2l-1.5 0.3q-0.7 0.3-1.4 0.5-0.8 0.3-1.5 0.6l-1.4 0.7c-1 0.5-1.9 1.1-3 1.5l-0.1 0.1c-0.4 0.1-0.8 0-0.9-0.4-0.1-0.2-0.1-0.5 0-0.7 0.8-0.9 1.6-1.9 2.4-2.7 1-0.7 1.9-1.6 3-2.2 2.2-1.3 4.8-1.9 7.4-1.9 2.6 0 5.2 0.7 7.3 1.9 2.2 1.2 4.1 2.8 5.5 4.9 0.2 0.4 0.1 0.8-0.2 1-0.3 0.2-0.6 0.2-0.8 0z"/>
			</g>
			<path id="&lt;Path&gt;" class="s6" d="m139 125.7c0 0-7.3 9.2 4.8 9.2h2.2 2.2c12.1 0 4.8-9.2 4.8-9.2"/>
			<path id="&lt;Path&gt;" class="s7" d="m139.7 154.2c0 0 6.9 7 14.5-1.9"/>
			<g id="&lt;Group&gt;">
				<path id="&lt;Path&gt;" class="s8" d="m155.4 146.1c-1.2-2.4-3.6-5-8.5-5-6 0-8.8 3.8-9.9 6.1 3.1 1.4 10 3.3 18.4-1.1z"/>
			</g>
			<path id="&lt;Path&gt;" class="s7" d="m135.2 146.2c0.9 0.7 10.8 6.8 23.4-2.1"/>
			<g id="&lt;Group&gt;" style="opacity: .5">
				<path id="&lt;Path&gt;" class="s8" d="m121.9 123c0 4.7-3.9 8.6-8.6 8.6-4.7 0-8.6-3.9-8.6-8.6 0-4.7 3.9-8.6 8.6-8.6 4.7 0 8.6 3.9 8.6 8.6z"/>
			</g>
			<path id="&lt;Path&gt;" class="s7" d="m139 125.7c0 0-7.3 9.2 4.8 9.2h2.2 2.2c12.1 0 4.8-9.2 4.8-9.2"/>
			<g id="&lt;Group&gt;" style="opacity: .5">
				<path id="&lt;Path&gt;" class="s8" d="m170.1 123c0 4.7 3.8 8.6 8.6 8.6 4.7 0 8.5-3.9 8.5-8.6 0-4.7-3.8-8.6-8.5-8.6-4.8 0-8.6 3.9-8.6 8.6z"/>
			</g>
			<g id="&lt;Group&gt;">
				<g id="&lt;Group&gt;">
					<path id="&lt;Path&gt;" class="s9" d="m129.6 64.7c-9.3 4.4-20.4 8.5-33.6 11.3"/>
				</g>
				<g id="&lt;Group&gt;">
					<path id="&lt;Path&gt;" class="s10" d="m163.1 40.7c0 0-3.9 4.7-11.9 10.8"/>
				</g>
				<g id="&lt;Group&gt;">
					<path id="&lt;Path&gt;" class="s11" d="m163.1 32.5c0 0-20.4-12.1-38 2.2-17.6 14.3-20.4 28.7-29.1 33.3"/>
				</g>
				<g id="&lt;Group&gt;">
					<path id="&lt;Path&gt;" class="s12" d="m149.8 37.1c0 0-8.2 3.6-31 21.2"/>
				</g>
				<g id="&lt;Group&gt;">
					<path id="&lt;Path&gt;" class="s13" d="m77.6 140.4c4.7 8.2-0.9 14.2-0.9 14.2"/>
				</g>
				<g id="&lt;Group&gt;">
					<path id="&lt;Path&gt;" class="s14" d="m84 85c0 0 1.6 12.3-2.9 17.3-3.3 3.8-18.7 11.4-18.6 20.2"/>
				</g>
				<g id="&lt;Group&gt;">
					<path id="&lt;Path&gt;" class="s15" d="m73.4 130.3c0 0 16.7-1.6 15 34.4"/>
				</g>
				<g id="&lt;Group&gt;">
					<path id="&lt;Path&gt;" class="s16" d="m173.2 44.6c0 0-1.1 23.7 25.3 44.1"/>
				</g>
				<g id="&lt;Group&gt;">
					<path id="&lt;Path&gt;" class="s17" d="m187.2 64.7c0 0 6.3 18.2 18.1 24"/>
				</g>
				<g id="&lt;Group&gt;">
					<path id="&lt;Path&gt;" class="s18" d="m210.9 96.1c1.7 0.6 23 15.4 23.2 30 0.3 15-9.8 13.1-11.2 21.4"/>
				</g>
				<g id="&lt;Group&gt;">
					<path id="&lt;Path&gt;" class="s19" d="m219.6 131.6c-0.8 2.8-2.5 5.9-5.1 9.5"/>
				</g>
				<g id="&lt;Group&gt;">
					<path id="&lt;Path&gt;" class="s20" d="m210.9 112.7c0 0 5.6 2.4 8.2 7.9"/>
				</g>
				<g id="&lt;Group&gt;">
					<path id="&lt;Path&gt;" class="s21" d="m205.3 119.4c0 0 11.5 7.9 0 21.7"/>
				</g>
				<g id="&lt;Group&gt;">
					<path id="&lt;Path&gt;" class="s22" d="m201.9 145c0 0-5.7 6.6-5.9 15"/>
				</g>
			</g>
			<path id="&lt;Path&gt;" class="s23" d="m127.7 186.4c0 0 18.9 6.8 36.5 0"/>
			<path id="&lt;Path&gt;" class="s4" d="m149.2 195.5c0 1.8-1.4 3.2-3.2 3.2-1.8 0-3.2-1.4-3.2-3.2 0-1.8 1.4-3.2 3.2-3.2 1.8 0 3.2 1.4 3.2 3.2z"/>
			<path id="&lt;Path&gt;" class="s23" d="m106.2 237.8c0 0-0.4-17.7 1.3-26.2"/>
			<path id="&lt;Path&gt;" class="s23" d="m184.5 237.8c0 0 0.4-17.7-1.3-26.2"/>
			<g id="&lt;Group&gt;">
				<path id="&lt;Path&gt;" class="s5" d="m194.4 273.1l-8.9-39.2c-0.3-1.2-1.7-1.5-2.4-0.6-3.6 4.8-13.9 14.6-37.8 14.7-23.9-0.1-34.1-9.9-37.8-14.7-0.6-0.9-2-0.6-2.3 0.6l-9.4 41.4c14.5 5 30.1 7.8 46.4 7.8 18.4 0 36-3.5 52.2-10z"/>
			</g>
		</g>
	</g>
</svg>